<svg version="1.2" xmlns="http://www.w3.org/2000/svg" viewBox="0 0 504 231" width="504" height="231">
	<title>5587868-ai</title>
	<style>
		.s0 { fill: #1d44c3 } 
		.s1 { fill: #eda637 } 
	</style>
	<g id="OBJECTS">
		<g id="&lt;Group&gt;">
			<g id="&lt;Group&gt;">
				<g id="&lt;Group&gt;">
					<path id="&lt;Compound Path&gt;" fill-rule="evenodd" class="s0" d="m102.9 214.5l-76.8-44.4c-5.4-3.1-8.7-8.9-8.7-15.1v-88.7c0-6.3 3.3-12 8.7-15.1l76.8-44.4c5.4-3.1 12-3.1 17.4 0l76.9 44.4c5.4 3.1 8.7 8.8 8.7 15.1v88.7c0 6.2-3.3 12-8.7 15.1l-76.9 44.4c-5.4 3.1-12 3.1-17.4 0zm-42-90.2h39.3v72l62.1-99.4h-39.2v-72z"/>
					<path id="&lt;Path&gt;" class="s1" d="m100.2 196.3v-72h-39.3c26-41.6 59.7-95.6 62.2-99.4 5.2-8.1 12.2-9.4 20.7-4.5l-23.5-13.6c-5.4-3.1-12-3.1-17.4 0l-76.8 44.4c-5.4 3.1-8.7 8.8-8.7 15.1v88.7c0 6.2 3.3 12 8.7 15.1l76.8 44.4c2.7 1.5 5.7 2.3 8.7 2.3 0 0-11.4-3.9-11.4-20.5z"/>
				</g>
				<g id="&lt;Group&gt;">
					<path id="RUIZ" class="s0" aria-label="RUIZ"  d="m302.2 82.3c0-15.2-8-22.2-25.1-22.2h-29.4v68.9h22.8v-23.8h1.8l6.8 23.8h24.6l-10.4-29.2c5.7-3.8 8.9-8.2 8.9-17.5zm-24.7 2.4c0 5.6-1.5 7-4.7 7h-2.8v-13.4h2.9c3.1 0 4.6 1.6 4.6 6.4zm62.6 25.9c-3.9 0-5.5-2.1-5.5-6v-44.5h-24.2v46c0 16.2 10.4 24 29.1 24 18.7 0 29.7-7.6 29.7-24.2v-45.8h-23.8v44.4c0 4-1.4 6.1-5.3 6.1zm62.3 18.4v-68.9h-23.5v68.9zm62.3 0v-17.6h-21l20-39.7-0.8-11.6h-54l1.2 18.9h23l-21.3 38.1 0.7 11.9z"/>
					<path id="Instalaciones Eléctricas" class="s1" aria-label="Instalaciones Eléctricas"  d="m220.1 159h-3.1v-14.3h3.1zm16.2-14.3v14.3h-3.8l-6.2-10.8h-0.1q0 0.7 0.1 1.4 0 0.7 0 1.3 0 0.7 0.1 1.4v6.7h-2.7v-14.3h3.8l6.2 10.7h0.1q-0.1-0.6-0.1-1.3 0-0.6-0.1-1.3 0-0.6 0-1.3v-6.8zm12 10.4q0 1.2-0.6 2.2-0.6 0.9-1.8 1.4-1.2 0.5-2.8 0.5-0.8 0-1.5-0.1-0.7-0.1-1.3-0.3-0.7-0.2-1.3-0.4v-2.9q1 0.5 2.1 0.9 1.1 0.3 2.2 0.3 0.7 0 1.2-0.2 0.5-0.2 0.7-0.5 0.2-0.4 0.2-0.8 0-0.5-0.4-0.9-0.4-0.4-1-0.7-0.6-0.4-1.4-0.7-0.5-0.3-1.1-0.6-0.6-0.3-1.1-0.8-0.5-0.5-0.9-1.2-0.3-0.7-0.3-1.7 0-1.3 0.6-2.2 0.6-0.9 1.6-1.4 1.1-0.5 2.6-0.5 1.1 0 2.1 0.3 1.1 0.3 2.2 0.7l-1 2.4q-1-0.4-1.8-0.6-0.8-0.2-1.6-0.2-0.5 0-0.9 0.1-0.4 0.2-0.6 0.6-0.3 0.3-0.3 0.7 0 0.5 0.3 0.9 0.3 0.3 0.9 0.6 0.6 0.4 1.5 0.8 1.1 0.5 1.9 1.1 0.8 0.5 1.2 1.3 0.4 0.7 0.4 1.9zm8.1-7.8v11.7h-3v-11.7h-3.9v-2.6h10.8v2.6zm18.1 11.7h-3.3l-1-3.4h-5.2l-1.1 3.4h-3.2l5-14.3h3.7zm-8.7-6h3.7l-1-3.3q-0.1-0.3-0.3-0.8-0.2-0.5-0.3-1.1-0.2-0.5-0.3-0.9-0.1 0.4-0.2 1-0.2 0.5-0.4 1.1-0.1 0.5-0.2 0.7zm19.4 6h-8.9v-14.3h3.1v11.8h5.8zm14.4 0h-3.2l-1.1-3.4h-5.2l-1 3.4h-3.3l5.1-14.4h3.7zm-8.8-5.9h3.8l-1.1-3.3q-0.1-0.4-0.2-0.9-0.2-0.5-0.4-1-0.1-0.6-0.2-1-0.1 0.4-0.3 1-0.1 0.6-0.3 1.1-0.2 0.5-0.2 0.8zm16.6-6.1q-0.9 0-1.6 0.4-0.6 0.3-1.1 1-0.4 0.6-0.7 1.5-0.2 0.9-0.2 2 0 1.5 0.4 2.6 0.3 1.1 1.1 1.6 0.8 0.6 2.1 0.6 0.8 0 1.7-0.2 0.9-0.2 1.9-0.6v2.6q-0.9 0.4-1.9 0.5-0.9 0.2-2 0.2-2.2 0-3.6-0.9-1.5-0.9-2.1-2.6-0.7-1.6-0.7-3.8 0-1.6 0.4-3 0.5-1.3 1.3-2.3 0.9-1 2.1-1.5 1.3-0.6 2.9-0.6 1 0 2.1 0.3 1.1 0.3 2.1 0.7l-1 2.5q-0.8-0.4-1.6-0.7-0.8-0.3-1.6-0.3zm9.7 12h-3v-14.3h3zm16.5-7.1q0 1.6-0.4 3-0.4 1.3-1.2 2.3-0.9 1-2.1 1.5-1.3 0.5-3.1 0.5-1.7 0-3-0.5-1.3-0.5-2.1-1.5-0.8-1-1.3-2.3-0.4-1.4-0.4-3 0-2.3 0.8-3.9 0.7-1.7 2.2-2.6 1.5-0.9 3.9-0.9 2.3 0 3.8 0.9 1.5 0.9 2.2 2.6 0.7 1.6 0.7 3.9zm-10.4 0q0 1.5 0.4 2.6 0.4 1 1.2 1.6 0.8 0.6 2 0.6 1.3 0 2.1-0.6 0.8-0.6 1.2-1.6 0.4-1.1 0.4-2.6 0-2.3-0.9-3.6-0.8-1.2-2.7-1.2-1.3 0-2.1 0.5-0.8 0.6-1.2 1.7-0.4 1.1-0.4 2.6zm26.1-7.1v14.2h-3.9l-6.2-10.8h-0.1q0 0.7 0.1 1.4 0 0.7 0 1.4 0.1 0.6 0.1 1.3v6.7h-2.7v-14.2h3.8l6.2 10.6h0.1q0-0.6-0.1-1.3 0-0.6 0-1.3 0-0.6-0.1-1.3v-6.7zm11.8 11.7v2.5h-8.2v-14.2h8.2v2.4h-5.1v3.2h4.8v2.5h-4.8v3.6zm11.4-1.4q0 1.2-0.7 2.2-0.6 0.9-1.8 1.4-1.1 0.5-2.8 0.5-0.7 0-1.5-0.1-0.7-0.1-1.3-0.3-0.7-0.1-1.2-0.4v-2.8q1 0.4 2.1 0.8 1.1 0.3 2.1 0.3 0.8 0 1.2-0.2 0.5-0.2 0.7-0.5 0.2-0.3 0.2-0.8 0-0.5-0.4-0.9-0.3-0.4-1-0.7-0.6-0.3-1.4-0.7-0.5-0.3-1.1-0.6-0.6-0.3-1.1-0.8-0.5-0.5-0.8-1.2-0.4-0.7-0.4-1.7 0-1.3 0.6-2.2 0.6-0.9 1.7-1.4 1.1-0.4 2.6-0.4 1.1 0 2.1 0.2 1 0.3 2.1 0.8l-1 2.3q-1-0.4-1.8-0.6-0.7-0.2-1.5-0.2-0.6 0-1 0.2-0.4 0.1-0.6 0.5-0.2 0.3-0.2 0.7 0 0.5 0.3 0.9 0.3 0.3 0.9 0.6 0.6 0.4 1.5 0.8 1.1 0.5 1.8 1.1 0.8 0.5 1.2 1.3 0.5 0.7 0.5 1.9zm16 1.4v2.5h-8.3v-14.2h8.3v2.4h-5.2v3.2h4.8v2.5h-4.8v3.6zm11.8 2.5h-8.9v-14.2h3.1v11.7h5.8zm10.7-2.5v2.5h-8.3v-14.2h8.3v2.4h-5.2v3.2h4.8v2.5h-4.8v3.6zm-3.5-16.1h3.3v0.2q-0.3 0.2-0.7 0.6-0.5 0.4-1 0.9-0.5 0.4-1.1 0.8-0.5 0.4-0.8 0.7h-2v-0.3q0.3-0.4 0.7-0.9 0.4-0.5 0.9-1.1 0.4-0.5 0.7-0.9zm12.5 6.7q-0.9 0-1.5 0.3-0.7 0.3-1.1 1-0.5 0.6-0.7 1.5-0.3 0.9-0.3 2 0 1.5 0.4 2.6 0.4 1.1 1.2 1.7 0.8 0.5 2 0.5 0.9 0 1.8-0.2 0.8-0.2 1.9-0.5v2.5q-1 0.4-1.9 0.6-0.9 0.1-2.1 0.1-2.2 0-3.6-0.9-1.4-0.9-2.1-2.5-0.7-1.7-0.7-3.9 0-1.6 0.5-3 0.4-1.3 1.2-2.3 0.9-1 2.1-1.5 1.3-0.5 2.9-0.5 1.1 0 2.1 0.2 1.1 0.3 2.1 0.8l-1 2.4q-0.8-0.4-1.6-0.6-0.8-0.3-1.6-0.3zm12.2 0.2v11.7h-3v-11.7h-3.9v-2.5h10.8v2.5zm6.1-2.5h4.1q2 0 3.2 0.4 1.3 0.5 1.9 1.4 0.6 1 0.6 2.4 0 1-0.4 1.7-0.3 0.8-0.9 1.3-0.6 0.5-1.3 0.8l4.2 6.2h-3.4l-3.4-5.4h-1.6v5.4h-3zm3.9 2.5h-0.9v3.9h1q1.5 0 2.1-0.5 0.7-0.5 0.7-1.5 0-1-0.7-1.5-0.7-0.4-2.2-0.4zm12.3 11.8h-3v-14.3h3zm9.6-11.9q-0.8 0-1.5 0.3-0.7 0.3-1.1 1-0.5 0.6-0.7 1.5-0.2 0.9-0.2 2 0 1.5 0.3 2.6 0.4 1.1 1.2 1.7 0.8 0.5 2 0.5 0.9 0 1.8-0.2 0.9-0.2 1.9-0.5v2.5q-1 0.4-1.9 0.6-0.9 0.1-2 0.1-2.2 0-3.7-0.9-1.4-0.9-2.1-2.5-0.7-1.7-0.7-3.9 0-1.6 0.5-3 0.4-1.3 1.3-2.3 0.8-1 2.1-1.5 1.2-0.5 2.8-0.5 1.1 0 2.2 0.2 1 0.3 2 0.8l-1 2.4q-0.8-0.4-1.6-0.6-0.8-0.3-1.6-0.3zm18.7 11.9h-3.2l-1.1-3.4h-5.2l-1 3.4h-3.3l5.1-14.3h3.7zm-8.8-5.9h3.7l-1-3.4q-0.1-0.3-0.2-0.8-0.2-0.5-0.4-1.1-0.1-0.5-0.2-0.9-0.1 0.4-0.3 1-0.2 0.6-0.3 1.1-0.2 0.5-0.2 0.7zm18.9 2q0 1.3-0.6 2.2-0.6 1-1.8 1.5-1.2 0.5-2.8 0.5-0.8 0-1.5-0.1-0.7-0.1-1.4-0.3-0.6-0.2-1.2-0.5v-2.8q1 0.4 2.1 0.8 1.1 0.4 2.2 0.4 0.7 0 1.2-0.2 0.4-0.2 0.6-0.6 0.2-0.3 0.2-0.7 0-0.6-0.3-1-0.4-0.3-1-0.7-0.6-0.3-1.4-0.7-0.5-0.2-1.1-0.6-0.6-0.3-1.1-0.8-0.5-0.5-0.9-1.2-0.3-0.7-0.3-1.6 0-1.3 0.6-2.2 0.5-0.9 1.6-1.4 1.1-0.5 2.6-0.5 1.1 0 2.1 0.3 1 0.2 2.2 0.7l-1 2.4q-1-0.4-1.8-0.7-0.8-0.2-1.6-0.2-0.6 0-1 0.2-0.4 0.2-0.6 0.5-0.2 0.3-0.2 0.8 0 0.5 0.3 0.8 0.3 0.4 0.9 0.7 0.6 0.3 1.5 0.7 1.1 0.6 1.9 1.1 0.8 0.6 1.2 1.3 0.4 0.8 0.4 1.9z"/>
				</g>
			</g>
		</g>
	</g>
</svg>