<svg version="1.2" xmlns="http://www.w3.org/2000/svg" viewBox="0 0 220 223" width="220" height="223">
	<title>Logo</title>
	<style>
		.s0 { fill: #1d44c3 } 
		.s1 { fill: #eda637 } 
	</style>
	<g id="OBJECTS">
		<g id="&lt;Group&gt;">
			<g id="&lt;Group&gt;">
				<g id="&lt;Group&gt;">
					<path id="&lt;Compound Path&gt;" fill-rule="evenodd" class="s0" d="m102.9 214.5l-76.8-44.4c-5.4-3.1-8.7-8.9-8.7-15.1v-88.7c0-6.3 3.3-12 8.7-15.1l76.8-44.4c5.4-3.1 12-3.1 17.4 0l76.9 44.4c5.4 3.1 8.7 8.8 8.7 15.1v88.7c0 6.2-3.3 12-8.7 15.1l-76.9 44.4c-5.4 3.1-12 3.1-17.4 0zm-42-90.2h39.3v72l62.1-99.4h-39.2v-72z"/>
					<path id="&lt;Path&gt;" class="s1" d="m100.2 196.3v-72h-39.3c26-41.6 59.7-95.6 62.2-99.4 5.2-8.1 12.2-9.4 20.7-4.5l-23.5-13.6c-5.4-3.1-12-3.1-17.4 0l-76.8 44.4c-5.4 3.1-8.7 8.8-8.7 15.1v88.7c0 6.2 3.3 12 8.7 15.1l76.8 44.4c2.7 1.5 5.7 2.3 8.7 2.3 0 0-11.4-3.9-11.4-20.5z"/>
				</g>
			</g>
		</g>
	</g>
</svg>